<?xml version="1.0" encoding="UTF-8"?>
<svg version="1.1" xmlns="http://www.w3.org/2000/svg" width="32" height="31">
<path d="M0 0 C0 0.66 0 1.32 0 2 C-1.66666667 3.66666667 -3.33333333 5.33333333 -5 7 C-7.11411914 9.88288973 -7.00455165 10.94720084 -6.6875 14.625 C-6.18233562 17.8517308 -6.18233562 17.8517308 -5 20 C-4.236875 19.67 -3.47375 19.34 -2.6875 19 C0 18 0 18 3 18 C3.0928125 16.824375 3.0928125 16.824375 3.1875 15.625 C3.455625 14.75875 3.72375 13.8925 4 13 C6.5 12 6.5 12 9 11 C9.66347631 8.51599015 9.66347631 8.51599015 10 6 C10.99 5.34 11.98 4.68 13 4 C12.67 2.68 12.34 1.36 12 0 C16.42741644 1.35282169 18.36309221 3.23298888 21 7 C22.96122728 10.92245456 22.34787391 15.71369653 22 20 C20.40290501 23.75317323 18.06353956 26.31940288 15 29 C8.97662369 31.0077921 2.26053591 31.04953453 -3.5 28.375 C-7.88819401 24.20621569 -10.22564083 21.13470463 -10.4375 15 C-10.17703773 9.21773769 -8.73628581 5.6092405 -4.4375 1.625 C-2 0 -2 0 0 0 Z M16 5 C16 10.28 16 15.56 16 21 C19.5761877 17.4238123 19.83167183 15.96568113 20 11 C18.69280737 7.63121229 18.69280737 7.63121229 17 5 C16.67 5 16.34 5 16 5 Z " fill="#2796EC" transform="translate(10,1)"/>
<path d="M0 0 C0 0.66 0 1.32 0 2 C-1.66666667 3.66666667 -3.33333333 5.33333333 -5 7 C-7.00278909 9.73107603 -7.00312365 10.91566156 -6.875 14.375 C-5.70801607 19.20964769 -4.04486753 22.65622991 0.1875 25.4375 C4.29736838 26.25947368 7.95675135 26.14473102 12 25 C15.16420752 22.50902812 17.84711019 19.91982536 19 16 C18.79679206 10.51338555 17.26347478 7.35129971 14 3 C13.34 2.01 12.68 1.02 12 0 C16.42741644 1.35282169 18.36309221 3.23298888 21 7 C22.96122728 10.92245456 22.34787391 15.71369653 22 20 C20.40290501 23.75317323 18.06353956 26.31940288 15 29 C8.97662369 31.0077921 2.26053591 31.04953453 -3.5 28.375 C-7.88819401 24.20621569 -10.22564083 21.13470463 -10.4375 15 C-10.17703773 9.21773769 -8.73628581 5.6092405 -4.4375 1.625 C-2 0 -2 0 0 0 Z " fill="#6B6E72" transform="translate(10,1)"/>
<path d="M0 0 C0 5.28 0 10.56 0 16 C-9.71428571 15.28571429 -9.71428571 15.28571429 -13 12 C-12 9 -12 9 -9 7 C-8.01 7 -7.02 7 -6 7 C-5.8453125 5.824375 -5.8453125 5.824375 -5.6875 4.625 C-4.82572663 1.33459258 -3.53157582 0 0 0 Z " fill="#1D93DD" transform="translate(19,12)"/>
<path d="M0 0 C0 2.64 0 5.28 0 8 C-2.375 7.75 -2.375 7.75 -5 7 C-6.3125 4.9375 -6.3125 4.9375 -7 3 C-3.375 0 -3.375 0 0 0 Z " fill="#04B2F2" transform="translate(13,19)"/>
</svg>
