<?xml version="1.0" encoding="UTF-8"?>
<svg version="1.1" xmlns="http://www.w3.org/2000/svg" width="846" height="838">
<path d="M0 0 C0.99 0.495 0.99 0.495 2 1 C1.4330542 1.30067383 0.8661084 1.60134766 0.28198242 1.91113281 C-33.62605059 19.96539488 -64.31343213 41.59141725 -92.4375 67.75 C-93.0876709 68.35166992 -93.7378418 68.95333984 -94.40771484 69.57324219 C-98.29755432 73.22827244 -101.87417417 77.04392146 -105.34985352 81.09375 C-107.28193744 83.32569426 -109.29355318 85.46889016 -111.32226562 87.61254883 C-117.50317302 94.16020979 -123.15647339 101.00384256 -128.60253906 108.16992188 C-130.01992743 110.02609644 -131.45776104 111.86498737 -132.8984375 113.703125 C-145.29267935 129.67506508 -155.5566727 147.15075027 -165 165 C-165.44585449 165.84111328 -165.89170898 166.68222656 -166.35107422 167.54882812 C-173.59618089 181.33405735 -179.71727191 195.35307439 -185 210 C-185.56847656 211.57177002 -185.56847656 211.57177002 -186.1484375 213.17529297 C-219.89703746 307.64022902 -214.07526397 412.4930353 -171.6862793 503.28686523 C-163.85066894 519.77694909 -155.03148612 535.30143261 -144.9375 550.5 C-144.52628906 551.12112671 -144.11507812 551.74225342 -143.69140625 552.38220215 C-135.86340379 564.15937558 -127.33323801 575.37688144 -118.0625 586.0625 C-117.32265869 586.91908203 -117.32265869 586.91908203 -116.56787109 587.79296875 C-104.59492895 601.57608313 -92.18475555 615.4100543 -77.8203125 626.73828125 C-75.76484933 628.38663745 -73.7776489 630.05146222 -71.8046875 631.79296875 C-62.99069091 639.570923 -53.74586693 646.43285298 -44 653 C-43.31566895 653.4626123 -42.63133789 653.92522461 -41.92626953 654.40185547 C3.83989006 685.14911795 55.48403006 705.99260782 109.9375 714.8125 C111.13084961 715.007229 112.32419922 715.20195801 113.55371094 715.40258789 C132.15941931 718.26917973 150.62250632 719.38112806 169.4375 719.3125 C170.48248657 719.31067719 171.52747314 719.30885437 172.60412598 719.30697632 C228.53457215 719.1435024 283.45643872 707.04723509 334 683 C334.88429688 682.58395508 335.76859375 682.16791016 336.6796875 681.73925781 C366.62060659 667.56677322 394.03824383 648.70738019 419 627 C419.71285156 626.38769531 420.42570313 625.77539062 421.16015625 625.14453125 C433.13674894 614.79104969 444.70784578 604.04787464 455 592 C455.89238203 590.98232945 456.78568697 589.96546778 457.6796875 588.94921875 C519.14400254 518.71736448 552.19785231 424.95252084 549 313 C543.4360596 231.61667183 510.63563217 154.15948878 457.39990234 92.62084961 C456.4405598 91.51009357 455.48807646 90.39338688 454.54150391 89.27172852 C449.44333265 83.30734809 443.94000843 77.7538803 438.39501953 72.2097168 C436.76172552 70.57424118 435.1366153 68.93092292 433.51171875 67.28710938 C426.99763309 60.73815868 420.25971499 54.72915801 413 49 C411.80292217 48.01151551 410.60848182 47.01981873 409.41796875 46.0234375 C390.69116998 30.5825433 370.04120164 17.81637419 348.86816406 6.04492188 C345.89981343 4.38463166 342.95017253 2.69234703 340 1 C340.66 0.67 341.32 0.34 342 0 C344.40063477 0.93359375 344.40063477 0.93359375 347.44140625 2.4375 C349.13475098 3.27414185 349.13475098 3.27414185 350.86230469 4.12768555 C352.09625384 4.75070081 353.32963888 5.37483443 354.5625 6 C355.18547974 6.31345367 355.80845947 6.62690735 356.45031738 6.94985962 C375.46313103 16.54041275 393.76799253 27.47459154 411 40 C411.66290039 40.48033691 412.32580078 40.96067383 413.00878906 41.45556641 C425.07667892 50.24494616 436.45694712 59.67348139 447.48828125 69.734375 C449.56646961 71.60894615 451.67036444 73.44142704 453.7890625 75.26953125 C458.05233166 78.99348018 462.07257825 82.92435853 466.0625 86.9375 C466.73087891 87.60201172 467.39925781 88.26652344 468.08789062 88.95117188 C472.59693935 93.46898454 476.84867336 98.15308339 481 103 C481.87759784 104.00912009 482.75520149 105.01823512 483.6328125 106.02734375 C491.10799538 114.75620151 498.12640857 123.79164694 505 133 C505.66298096 133.88292725 505.66298096 133.88292725 506.33935547 134.78369141 C551.56883335 195.30747926 576.17233546 269.27854976 583 344 C583.07202637 344.75651855 583.14405273 345.51303711 583.21826172 346.29248047 C591.33253981 435.16212038 566.09392154 528.27755802 497 630 C496.28199219 630.89589844 495.56398438 631.79179688 494.82421875 632.71484375 C492.57524929 635.4990919 490.29606168 638.25446458 488 641 C487.55962402 641.52674316 487.11924805 642.05348633 486.66552734 642.59619141 C474.07651269 657.60229687 460.88828135 672.23861598 446 685 C445.03835938 685.85078125 444.07671875 686.7015625 443.0859375 687.578125 C424.56450678 703.8721892 404.24052764 718.45844134 383 731 C381.90921143 731.650896 381.90921143 731.650896 380.79638672 732.31494141 C327.50140738 764.00061646 268.51953324 781.81005602 207 788 C205.5622522 788.14574463 205.5622522 788.14574463 204.09545898 788.29443359 C193.84779543 789.20982909 183.5932949 789.24349631 173.3125 789.25 C172.34835175 789.25067474 171.38420349 789.25134949 170.39083862 789.25204468 C89.12191431 789.16243354 6.98574109 765.68703167 -60 719 C-61.25670984 718.15200941 -62.51461125 717.30578313 -63.7734375 716.4609375 C-89.95784128 698.81252966 -115.40971314 677.41295023 -135.953125 653.3828125 C-137.54914793 651.52484687 -139.16381297 649.69218311 -140.796875 647.8671875 C-204.24388453 576.51530465 -240.72397072 480.92688072 -241.68359375 347.79296875 C-239.59839045 314.96555009 -232.99913291 282.29921087 -223 251 C-222.67161133 249.96697754 -222.34322266 248.93395508 -222.00488281 247.86962891 C-216.48161537 230.71497916 -209.66665942 214.30198368 -202 198 C-201.57074219 197.08492676 -201.14148438 196.16985352 -200.69921875 195.22705078 C-177.6026722 146.45850944 -142.56818786 99.71978909 -101 65 C-100.12085938 64.23171875 -99.24171875 63.4634375 -98.3359375 62.671875 C-82.62211965 48.99944473 -65.6886768 36.96966991 -48 26 C-47.14212891 25.46665039 -46.28425781 24.93330078 -45.40039062 24.38378906 C-34.44328991 17.62190148 -23.23909869 11.42888569 -11.75 5.625 C-10.04336182 4.7577832 -10.04336182 4.7577832 -8.30224609 3.87304688 C-7.24859863 3.35033203 -6.19495117 2.82761719 -5.109375 2.2890625 C-4.17061523 1.82193848 -3.23185547 1.35481445 -2.26464844 0.87353516 C-1.51731445 0.58526855 -0.76998047 0.29700195 0 0 Z " fill="#6C6D70" transform="translate(252,42)"/>
<path d="M0 0 C0.22257485 49.02434164 0.42953816 98.04871855 0.55046082 147.07342529 C0.55225556 147.79919318 0.5540503 148.52496107 0.55589943 149.27272192 C0.5948087 165.04623087 0.63082086 180.81974519 0.66384928 196.59326752 C0.68006443 204.32878109 0.69691966 212.06429322 0.71411133 219.79980469 C0.7158112 220.56957441 0.71751106 221.33934413 0.71926244 222.13244021 C0.77464411 247.07570164 0.87227869 272.01857981 0.99186387 296.96160913 C1.11454659 322.59732987 1.19452424 348.23283858 1.22089487 373.86884792 C1.22464079 377.49108501 1.22887407 381.11332137 1.23340416 384.73555756 C1.23428066 385.44845413 1.23515716 386.1613507 1.23606022 386.8958502 C1.2514131 398.36420969 1.31168069 409.83191291 1.38881644 421.30000494 C1.46543483 432.83407239 1.4935125 444.36723551 1.47551791 455.90159574 C1.46718578 462.14975936 1.4800075 468.39599964 1.54967117 474.64382172 C1.61301853 480.36697853 1.61608652 486.08692253 1.57168563 491.81022844 C1.56620011 493.87778782 1.58263352 495.94554904 1.62348137 498.01271215 C1.92476849 514.20437758 1.92476849 514.20437758 -2.75698721 519.76481009 C-5.38040964 522.39841267 -8.20062446 524.63785836 -11.24684206 526.76090774 C-13.73178406 528.51720837 -16.06426746 530.44572243 -18.41818536 532.37211163 C-20.05909058 533.71292359 -21.72839412 535.01022338 -23.41796875 536.2890625 C-24.00884277 536.73668945 -24.5997168 537.18431641 -25.20849609 537.64550781 C-25.79969238 538.09249023 -26.39088867 538.53947266 -27 539 C-27.58475098 539.44698242 -28.16950195 539.89396484 -28.77197266 540.35449219 C-49.41541152 556.09631847 -71.74670886 568.85285531 -95.27270508 579.7331543 C-97.19706999 580.62703394 -99.11568383 581.53334559 -101.0300293 582.44848633 C-109.01267182 586.22654477 -117.10970969 589.38144001 -125.4375 592.3125 C-127.27731445 592.97475586 -127.27731445 592.97475586 -129.15429688 593.65039062 C-134.46328006 595.53552712 -139.42817048 597.12450244 -145 598 C-145.1882895 550.44455693 -145.3634179 502.88908623 -145.46577454 455.33337402 C-145.46729316 454.62960971 -145.46881179 453.92584539 -145.47037644 453.20075489 C-145.50329792 437.9063037 -145.53376999 422.61184855 -145.56171862 407.31738749 C-145.57543941 399.81705953 -145.58970149 392.31673265 -145.60424805 384.81640625 C-145.6056864 384.07003098 -145.60712475 383.3236557 -145.60860668 382.554663 C-145.65548719 358.35952532 -145.73811545 334.1646701 -145.83926943 309.96970356 C-145.94302394 285.10757779 -146.01073881 260.24560834 -146.03306489 235.38326973 C-146.03623462 231.87218654 -146.03981663 228.36110388 -146.04364967 224.85002136 C-146.04476215 223.81346758 -146.04476215 223.81346758 -146.04589711 222.75597331 C-146.05889952 211.62908359 -146.10992661 200.50267705 -146.17515237 189.37598442 C-146.23990555 178.19161372 -146.26375895 167.00771308 -146.24851515 155.82311541 C-146.24145435 149.76197026 -146.2524367 143.70224398 -146.31126022 137.64134979 C-146.36470899 132.09384121 -146.36755402 126.54870808 -146.32988784 121.00109118 C-146.32523156 118.99283902 -146.339263 116.98443994 -146.37371501 114.97647792 C-146.61654949 99.95151374 -146.61654949 99.95151374 -142.5846411 95.08415604 C-139.80044696 93.02721911 -137.118588 91.4845389 -134 90 C-132.82634575 89.22022834 -131.66604032 88.41935222 -130.5300293 87.58569336 C-129.55461182 86.92706299 -128.57919434 86.26843262 -127.57421875 85.58984375 C-126.7553569 85.03561989 -126.7553569 85.03561989 -125.91995239 84.47019958 C-124.17693798 83.29094183 -122.43221683 82.11423713 -120.6875 80.9375 C-118.82121374 79.67551294 -116.95539822 78.41283183 -115.08958435 77.15014648 C-113.84019235 76.30470958 -112.59065081 75.45949363 -111.34095764 74.61450195 C-105.82172658 70.88226152 -100.31513209 67.13166812 -94.8125 63.375 C-87.04683375 58.07571336 -79.27532608 52.78510341 -71.5 47.5 C-62.77324209 41.56797243 -54.05137302 35.62885913 -45.33496094 29.68164062 C-40.3673753 26.29309544 -35.39658523 22.90932646 -30.421875 19.53125 C-29.86528198 19.15319214 -29.30868896 18.77513428 -28.73522949 18.38562012 C-26.04020085 16.55506786 -23.34474558 14.72515176 -20.6484375 12.89648438 C-19.66617188 12.22939453 -18.68390625 11.56230469 -17.671875 10.875 C-16.72634766 10.23304688 -15.78082031 9.59109375 -14.80664062 8.9296875 C-11.15764044 6.42084116 -7.5584627 3.84419732 -3.96972656 1.25 C-2 0 -2 0 0 0 Z " fill="#2697ED" transform="translate(669,131)"/>
<path d="M0 0 C0 136.29 0 272.58 0 413 C-37.60806759 418.87626056 -37.60806759 418.87626056 -47.5234375 419.31640625 C-48.47057617 419.35854248 -49.41771484 419.40067871 -50.39355469 419.4440918 C-82.57925679 420.72234806 -114.32049989 419.39637074 -146 413 C-146.54995226 373.14405775 -146.9725385 333.28861195 -147.22556791 293.42963013 C-147.25558302 288.71854279 -147.28664693 284.00746292 -147.31835938 279.29638672 C-147.32465483 278.35854003 -147.33095028 277.42069335 -147.3374365 276.45442706 C-147.44172609 261.29036677 -147.63086744 246.12850149 -147.85166711 230.96574122 C-148.07651897 215.39423023 -148.20949463 199.82386444 -148.25812387 184.25079679 C-148.29097727 174.64835937 -148.39449029 165.05212537 -148.58999521 155.4515996 C-148.71738645 148.85789874 -148.75509439 142.26737834 -148.72403306 135.6725378 C-148.70872425 131.87096307 -148.73122807 128.0801689 -148.8609314 124.28054237 C-149.57758047 102.20427128 -149.57758047 102.20427128 -143.66285896 95.25345802 C-137.96701597 90.33484319 -131.68198173 86.83442285 -124.9533968 83.52977848 C-120.57772851 81.26330241 -116.69451516 78.43514124 -112.75 75.5 C-111.38607925 74.52459067 -110.02047753 73.55152241 -108.65234375 72.58203125 C-108.02569824 72.13682129 -107.39905273 71.69161133 -106.75341797 71.23291016 C-103.35387553 68.84253292 -99.88162 66.56333396 -96.4140625 64.2734375 C-91.97493916 61.33113359 -87.58468643 58.31693394 -83.1875 55.3125 C-73.9733882 49.0192882 -64.74033245 42.7546159 -55.5 36.5 C-46.3463636 30.30309131 -37.19613724 24.10137224 -28.0625 17.875 C-27.18883789 17.28001709 -26.31517578 16.68503418 -25.41503906 16.07202148 C-21.31923891 13.2791811 -17.23417347 10.47250372 -13.16796875 7.63671875 C-12.41829834 7.1154541 -11.66862793 6.59418945 -10.89624023 6.05712891 C-9.50874781 5.09088745 -8.12394511 4.120767 -6.74243164 3.14599609 C-2.2222596 0 -2.2222596 0 0 0 Z " fill="#1C92DD" transform="translate(496,324)"/>
<path d="M0 0 C0 69.63 0 139.26 0 211 C-48.07364981 198.98158755 -96.5710552 173.38222528 -133.16235352 139.59863281 C-135.06356922 137.89492133 -135.06356922 137.89492133 -137.53881836 136.17480469 C-142.99616949 131.97979512 -145.67217227 128.69121026 -147.06640625 121.859375 C-147.33908664 119.10867556 -147.52280076 116.49974293 -147.5625 113.75 C-147.58750076 112.68952957 -147.58750076 112.68952957 -147.61300659 111.6076355 C-147.61310025 104.97054082 -146.99299103 98.76755147 -142.31640625 93.73681641 C-135.2473346 87.25245886 -126.51490601 82.78072916 -118.11669922 78.27587891 C-112.14798309 75.0414504 -106.67417594 71.15359842 -101.125 67.25 C-99.09481333 65.86371703 -97.06227067 64.48087784 -95.02734375 63.1015625 C-94.03331543 62.42512695 -93.03928711 61.74869141 -92.01513672 61.05175781 C-77.4297738 51.12662502 -62.83933327 41.20901914 -48.23919678 31.30563354 C-41.81957039 26.95114063 -35.4014021 22.5945388 -28.98828125 18.23046875 C-28.42213104 17.84525055 -27.85598083 17.46003235 -27.27267456 17.06314087 C-24.60000116 15.2445058 -21.92766916 13.42537241 -19.25585938 11.60546875 C-17.38096988 10.32937921 -15.50490201 9.05501859 -13.62744141 7.78271484 C-11.87067841 6.59075393 -10.11775322 5.39311768 -8.36865234 4.18994141 C-7.55992676 3.63870605 -6.75120117 3.0874707 -5.91796875 2.51953125 C-5.20793701 2.03202393 -4.49790527 1.5445166 -3.76635742 1.04223633 C-2 0 -2 0 0 0 Z " fill="#02B3F4" transform="translate(322,518)"/>
</svg>
